<?xml version="1.0" encoding="UTF-8"?>
<!DOCTYPE svg PUBLIC "-//W3C//DTD SVG 1.1//EN" "http://www.w3.org/Graphics/SVG/1.1/DTD/svg11.dtd">
<svg xmlns="http://www.w3.org/2000/svg" version="1.1" width="1756px" height="762px" style="shape-rendering:geometricPrecision; text-rendering:geometricPrecision; image-rendering:optimizeQuality; fill-rule:evenodd; clip-rule:evenodd" xmlns:xlink="http://www.w3.org/1999/xlink">
<g><path style="opacity:1" fill="#f5e6e0" d="M -0.5,-0.5 C 80.5,-0.5 161.5,-0.5 242.5,-0.5C 168.38,91.4591 94.0463,183.292 19.5,275C 20,275.167 20.5,275.333 21,275.5C 96.3508,183.976 171.184,91.9763 245.5,-0.5C 270.167,-0.5 294.833,-0.5 319.5,-0.5C 303.07,20.4397 286.404,41.2731 269.5,62C 270,62.1667 270.5,62.3333 271,62.5C 288.684,41.977 305.85,20.977 322.5,-0.5C 548.5,-0.5 774.5,-0.5 1000.5,-0.5C 969.868,37.9111 938.868,76.0778 907.5,114C 908,114.167 908.5,114.333 909,114.5C 914.878,108.456 920.544,102.122 926,95.5C 951.757,63.6215 977.257,31.6215 1002.5,-0.5C 1025.5,-0.5 1048.5,-0.5 1071.5,-0.5C 956.201,142.578 840.535,285.411 724.5,428C 725,428.167 725.5,428.333 726,428.5C 842.355,285.646 958.522,142.646 1074.5,-0.5C 1276.83,-0.5 1479.17,-0.5 1681.5,-0.5C 1646.34,43.1361 1611.18,86.8028 1576,130.5C 1573.56,133.117 1571.06,135.45 1568.5,137.5C 1540.69,127.896 1513.02,117.896 1485.5,107.5C 1484.79,106.596 1483.79,106.263 1482.5,106.5C 1482.17,117.346 1482.51,128.013 1483.5,138.5C 1487.5,140.61 1491.84,141.943 1496.5,142.5C 1496.83,150.196 1496.5,157.862 1495.5,165.5C 1491.62,166.76 1487.79,168.093 1484,169.5C 1483.33,180.167 1483.33,190.833 1484,201.5C 1499.79,195.69 1515.62,190.023 1531.5,184.5C 1526.17,191.5 1520.83,198.5 1515.5,205.5C 1514.83,205.833 1514.17,206.167 1513.5,206.5C 1493.57,209.817 1483.24,221.65 1482.5,242C 1482.2,261.098 1490.87,274.098 1508.5,281C 1522.79,282.391 1537.12,282.891 1551.5,282.5C 1549.75,284.246 1548.42,286.246 1547.5,288.5C 1545.54,295.087 1544.87,302.087 1545.5,309.5C 1524.83,309.5 1504.17,309.5 1483.5,309.5C 1483.5,319.5 1483.5,329.5 1483.5,339.5C 1504.17,339.5 1524.83,339.5 1545.5,339.5C 1545.5,346.833 1545.5,354.167 1545.5,361.5C 1553.83,361.5 1562.17,361.5 1570.5,361.5C 1571.17,343.995 1571.83,326.329 1572.5,308.5C 1617.04,258.123 1661.04,207.29 1704.5,156C 1704.33,155.5 1704.17,155 1704,154.5C 1660,205.167 1616,255.833 1572,306.5C 1571.33,303.5 1571.33,300.5 1572,297.5C 1614.53,248.928 1656.69,200.095 1698.5,151C 1698.33,150.5 1698.17,150 1698,149.5C 1655.63,197.538 1613.63,245.871 1572,294.5C 1571.81,292.292 1571.31,290.292 1570.5,288.5C 1611.08,240.578 1652.08,192.911 1693.5,145.5C 1693,144.479 1692.33,144.312 1691.5,145C 1651.63,191.026 1611.63,236.86 1571.5,282.5C 1571.34,279.482 1571.5,276.482 1572,273.5C 1610.5,229.167 1649,184.833 1687.5,140.5C 1687,139.479 1686.33,139.312 1685.5,140C 1647.55,183.407 1609.72,226.907 1572,270.5C 1571.18,267.036 1571.52,263.702 1573,260.5C 1609.35,218.981 1645.52,177.314 1681.5,135.5C 1681,134.479 1680.33,134.312 1679.5,135C 1643.67,176.167 1607.83,217.333 1572,258.5C 1571.18,255.036 1571.52,251.702 1573,248.5C 1607.37,209.796 1641.37,170.796 1675,131.5C 1675.69,130.668 1675.52,130.002 1674.5,129.5C 1639.01,169.827 1603.68,210.327 1568.5,251C 1551.5,251.5 1534.5,251.667 1517.5,251.5C 1513.12,250.788 1511.12,248.121 1511.5,243.5C 1511.25,239.756 1512.92,237.422 1516.5,236.5C 1534.83,236.5 1553.17,236.5 1571.5,236.5C 1571.83,225.986 1571.49,215.653 1570.5,205.5C 1552.83,205.5 1535.17,205.5 1517.5,205.5C 1523.19,198.148 1528.86,190.815 1534.5,183.5C 1546.56,178.794 1558.56,174.128 1570.5,169.5C 1571.33,159.341 1571.83,149.008 1572,138.5C 1609.51,92.1361 1647.01,45.8028 1684.5,-0.5C 1708.17,-0.5 1731.83,-0.5 1755.5,-0.5C 1755.5,66.8333 1755.5,134.167 1755.5,201.5C 1711.85,252.095 1668.18,302.762 1624.5,353.5C 1627.49,352.077 1630.32,349.744 1633,346.5C 1673.33,299.012 1714.16,252.012 1755.5,205.5C 1755.5,208.167 1755.5,210.833 1755.5,213.5C 1713.51,261.494 1671.84,309.827 1630.5,358.5C 1633.49,357.077 1636.32,354.744 1639,351.5C 1677.38,306.055 1716.21,261.055 1755.5,216.5C 1755.5,219.5 1755.5,222.5 1755.5,225.5C 1715.38,271.055 1675.71,317.055 1636.5,363.5C 1636.67,363.833 1636.83,364.167 1637,364.5C 1676.75,319.282 1716.25,273.948 1755.5,228.5C 1755.5,231.5 1755.5,234.5 1755.5,237.5C 1717.55,281.122 1679.55,324.788 1641.5,368.5C 1642,369.521 1642.67,369.688 1643.5,369C 1681.07,326.27 1718.4,283.436 1755.5,240.5C 1755.5,243.5 1755.5,246.5 1755.5,249.5C 1719.18,290.493 1683.18,331.826 1647.5,373.5C 1648,374.521 1648.67,374.688 1649.5,374C 1684.97,333.522 1720.3,293.022 1755.5,252.5C 1755.5,255.5 1755.5,258.5 1755.5,261.5C 1721.37,300.474 1687.37,339.641 1653.5,379C 1656.78,377.763 1659.61,375.597 1662,372.5C 1692.66,336.012 1723.82,300.012 1755.5,264.5C 1755.5,267.5 1755.5,270.5 1755.5,273.5C 1722.99,309.845 1690.99,346.678 1659.5,384C 1662.78,382.763 1665.61,380.597 1668,377.5C 1697.03,343.641 1726.2,309.974 1755.5,276.5C 1755.5,279.5 1755.5,282.5 1755.5,285.5C 1725.28,319.574 1695.28,353.907 1665.5,388.5C 1666,389.521 1666.67,389.688 1667.5,389C 1669,387.5 1670.5,386 1672,384.5C 1699.33,352.012 1727.16,320.012 1755.5,288.5C 1755.5,291.5 1755.5,294.5 1755.5,297.5C 1727.18,329.159 1699.18,361.159 1671.5,393.5C 1672,394.521 1672.67,394.688 1673.5,394C 1700.7,362.64 1728.03,331.473 1755.5,300.5C 1755.5,303.167 1755.5,305.833 1755.5,308.5C 1729.39,338.52 1703.39,368.687 1677.5,399C 1677.83,399.5 1678.17,400 1678.5,400.5C 1703.71,370.72 1729.38,341.387 1755.5,312.5C 1755.5,315.167 1755.5,317.833 1755.5,320.5C 1731.35,348.153 1707.35,375.986 1683.5,404C 1683.67,404.5 1683.83,405 1684,405.5C 1708.07,378.27 1731.9,350.936 1755.5,323.5C 1755.5,326.5 1755.5,329.5 1755.5,332.5C 1732.98,357.524 1710.98,383.024 1689.5,409C 1689.67,409.5 1689.83,410 1690,410.5C 1711.7,385.307 1733.53,360.307 1755.5,335.5C 1755.5,441.167 1755.5,546.833 1755.5,652.5C 1734.03,641.748 1713.7,643.581 1694.5,658C 1675.68,677.803 1672.51,699.969 1685,724.5C 1703.89,748.903 1727.39,754.57 1755.5,741.5C 1755.5,748.167 1755.5,754.833 1755.5,761.5C 1667.83,761.5 1580.17,761.5 1492.5,761.5C 1576.12,658.041 1659.95,554.707 1744,451.5C 1744.75,450.365 1744.58,449.365 1743.5,448.5C 1658.81,552.852 1574.14,657.186 1489.5,761.5C 1464.83,761.5 1440.17,761.5 1415.5,761.5C 1441.45,729.041 1467.62,696.708 1494,664.5C 1494.75,663.365 1494.58,662.365 1493.5,661.5C 1466.48,694.852 1439.48,728.186 1412.5,761.5C 1062.17,761.5 711.833,761.5 361.5,761.5C 466.705,631.606 572.039,501.772 677.5,372C 677,371.833 676.5,371.667 676,371.5C 569.982,501.024 464.482,631.024 359.5,761.5C 334.5,761.5 309.5,761.5 284.5,761.5C 331.799,702.422 379.466,643.589 427.5,585C 427,584.833 426.5,584.667 426,584.5C 393.362,623.482 361.029,662.815 329,702.5C 313.262,722.061 297.762,741.727 282.5,761.5C 188.167,761.5 93.8333,761.5 -0.5,761.5C -0.5,744.5 -0.5,727.5 -0.5,710.5C 28.1457,682.521 56.479,654.188 84.5,625.5C 83.9984,624.479 83.3317,624.312 82.5,625C 54.9653,652.702 27.2987,680.202 -0.5,707.5C -0.5,704.833 -0.5,702.167 -0.5,699.5C 26.1458,673.188 52.8125,646.854 79.5,620.5C 78.635,619.417 77.635,619.251 76.5,620C 50.9653,645.702 25.2987,671.202 -0.5,696.5C -0.5,693.833 -0.5,691.167 -0.5,688.5C 24.479,664.188 49.1457,639.521 73.5,614.5C 72.9984,613.479 72.3317,613.312 71.5,614C 47.632,638.035 23.632,661.868 -0.5,685.5C -0.5,682.833 -0.5,680.167 -0.5,677.5C 22.4792,654.854 45.4792,632.188 68.5,609.5C 67.635,608.417 66.635,608.251 65.5,609C 43.632,631.035 21.632,652.868 -0.5,674.5C -0.5,671.833 -0.5,669.167 -0.5,666.5C 20.8123,645.854 41.8123,624.854 62.5,603.5C 61.9984,602.479 61.3317,602.312 60.5,603C 40.2986,623.368 19.9653,643.535 -0.5,663.5C -0.5,660.833 -0.5,658.167 -0.5,655.5C 18.8125,636.521 38.1459,617.521 57.5,598.5C 56.635,597.417 55.635,597.251 54.5,598C 36.2986,616.368 17.9653,634.535 -0.5,652.5C -0.5,649.833 -0.5,647.167 -0.5,644.5C 17.1457,627.521 34.479,610.188 51.5,592.5C 50.9984,591.479 50.3317,591.312 49.5,592C 32.9652,608.702 16.2986,625.202 -0.5,641.5C -0.5,638.833 -0.5,636.167 -0.5,633.5C 15.1459,618.188 30.8126,602.855 46.5,587.5C 45.635,586.417 44.635,586.251 43.5,587C 28.9652,601.702 14.2985,616.202 -0.5,630.5C -0.5,627.833 -0.5,625.167 -0.5,622.5C 13.479,609.188 27.1457,595.521 40.5,581.5C 39.9984,580.479 39.3317,580.312 38.5,581C 25.6318,594.035 12.6318,606.869 -0.5,619.5C -0.5,616.833 -0.5,614.167 -0.5,611.5C 11.5326,599.8 23.5326,588.133 35.5,576.5C 34.635,575.417 33.635,575.251 32.5,576C 21.6318,587.035 10.6318,597.869 -0.5,608.5C -0.5,605.833 -0.5,603.167 -0.5,600.5C 9.86644,590.8 19.8664,580.8 29.5,570.5C 28.9984,569.479 28.3317,569.312 27.5,570C 18.2984,579.369 8.96503,588.536 -0.5,597.5C -0.5,594.833 -0.5,592.167 -0.5,589.5C 7.86577,581.466 16.1991,573.466 24.5,565.5C 23.635,564.417 22.635,564.251 21.5,565C 14.2982,572.369 6.9649,579.536 -0.5,586.5C -0.5,583.833 -0.5,581.167 -0.5,578.5C 6.19979,572.467 12.5331,566.134 18.5,559.5C 17.9984,558.479 17.3317,558.312 16.5,559C 10.9647,564.703 5.29805,570.203 -0.5,575.5C -0.5,572.833 -0.5,570.167 -0.5,567.5C 4.77402,563.895 9.44069,559.562 13.5,554.5C 12.635,553.417 11.635,553.251 10.5,554C 6.96427,557.704 3.2976,561.204 -0.5,564.5C -0.5,562.167 -0.5,559.833 -0.5,557.5C 2.67896,555.154 5.34563,552.321 7.5,549C 7.15013,547.743 6.48346,547.409 5.5,548C 3.62976,550.04 1.62976,551.873 -0.5,553.5C -0.5,368.833 -0.5,184.167 -0.5,-0.5 Z"/></g>
<g><path style="opacity:1" fill="#f8ede9" d="M 242.5,-0.5 C 243.5,-0.5 244.5,-0.5 245.5,-0.5C 171.184,91.9763 96.3508,183.976 21,275.5C 20.5,275.333 20,275.167 19.5,275C 94.0463,183.292 168.38,91.4591 242.5,-0.5 Z"/></g>
<g><path style="opacity:1" fill="#f8ede9" d="M 319.5,-0.5 C 320.5,-0.5 321.5,-0.5 322.5,-0.5C 305.85,20.977 288.684,41.977 271,62.5C 270.5,62.3333 270,62.1667 269.5,62C 286.404,41.2731 303.07,20.4397 319.5,-0.5 Z"/></g>
<g><path style="opacity:1" fill="#f8ede9" d="M 1000.5,-0.5 C 1001.17,-0.5 1001.83,-0.5 1002.5,-0.5C 977.257,31.6215 951.757,63.6215 926,95.5C 920.544,102.122 914.878,108.456 909,114.5C 908.5,114.333 908,114.167 907.5,114C 938.868,76.0778 969.868,37.9111 1000.5,-0.5 Z"/></g>
<g><path style="opacity:1" fill="#f8ede9" d="M 1071.5,-0.5 C 1072.5,-0.5 1073.5,-0.5 1074.5,-0.5C 958.522,142.646 842.355,285.646 726,428.5C 725.5,428.333 725,428.167 724.5,428C 840.535,285.411 956.201,142.578 1071.5,-0.5 Z"/></g>
<g><path style="opacity:1" fill="#f8eee9" d="M 1681.5,-0.5 C 1682.5,-0.5 1683.5,-0.5 1684.5,-0.5C 1647.01,45.8028 1609.51,92.1361 1572,138.5C 1571.83,149.008 1571.33,159.341 1570.5,169.5C 1571.11,158.577 1570.44,147.91 1568.5,137.5C 1571.06,135.45 1573.56,133.117 1576,130.5C 1611.18,86.8028 1646.34,43.1361 1681.5,-0.5 Z"/></g>
<g><path style="opacity:1" fill="#f6eae5" d="M 1485.5,107.5 C 1483.52,117.446 1482.86,127.779 1483.5,138.5C 1482.51,128.013 1482.17,117.346 1482.5,106.5C 1483.79,106.263 1484.79,106.596 1485.5,107.5 Z"/></g>
<g><path style="opacity:1" fill="#fcf9f7" d="M 1485.5,107.5 C 1513.02,117.896 1540.69,127.896 1568.5,137.5C 1570.44,147.91 1571.11,158.577 1570.5,169.5C 1558.56,174.128 1546.56,178.794 1534.5,183.5C 1533.21,183.263 1532.21,183.596 1531.5,184.5C 1515.62,190.023 1499.79,195.69 1484,201.5C 1483.33,190.833 1483.33,180.167 1484,169.5C 1487.79,168.093 1491.62,166.76 1495.5,165.5C 1496.5,157.862 1496.83,150.196 1496.5,142.5C 1491.84,141.943 1487.5,140.61 1483.5,138.5C 1482.86,127.779 1483.52,117.446 1485.5,107.5 Z"/></g>
<g><path style="opacity:1" fill="#f5e6e0" d="M 1566.5,142.5 C 1556.41,153.584 1547.08,165.251 1538.5,177.5C 1521.78,183.296 1505.11,189.296 1488.5,195.5C 1487.34,187.855 1487.17,180.188 1488,172.5C 1492,170.665 1496.17,169.332 1500.5,168.5C 1500.5,158.833 1500.5,149.167 1500.5,139.5C 1496.04,139.07 1491.88,137.736 1488,135.5C 1487.33,127.833 1487.33,120.167 1488,112.5C 1513.66,122.388 1539.5,131.888 1565.5,141C 1566.06,141.383 1566.39,141.883 1566.5,142.5 Z"/></g>
<g><path style="opacity:1" fill="#f8ede9" d="M 431.5,116.5 C 432.376,116.369 433.043,116.702 433.5,117.5C 389.5,168.5 345.5,219.5 301.5,270.5C 301.167,270.167 300.833,269.833 300.5,269.5C 301.531,268.3 302.365,266.966 303,265.5C 346.043,215.961 388.876,166.295 431.5,116.5 Z"/></g>
<g><path style="opacity:1" fill="#f8ede9" d="M 437.5,121.5 C 438.376,121.369 439.043,121.702 439.5,122.5C 395.5,173.5 351.5,224.5 307.5,275.5C 307.167,275.167 306.833,274.833 306.5,274.5C 307.531,273.3 308.365,271.966 309,270.5C 352.043,220.961 394.876,171.295 437.5,121.5 Z"/></g>
<g><path style="opacity:1" fill="#f8ede9" d="M 443.5,126.5 C 445.028,126.517 445.528,127.184 445,128.5C 401.521,179.28 357.687,229.78 313.5,280C 312.833,280.667 312.167,280.667 311.5,280C 355.626,228.895 399.626,177.729 443.5,126.5 Z"/></g>
<g><path style="opacity:1" fill="#f8eee9" d="M 1571.5,282.5 C 1571.17,282.5 1570.83,282.5 1570.5,282.5C 1570.5,282.167 1570.5,281.833 1570.5,281.5C 1570.5,271.833 1570.5,262.167 1570.5,252.5C 1552.66,252.83 1534.99,252.497 1517.5,251.5C 1534.5,251.667 1551.5,251.5 1568.5,251C 1603.68,210.327 1639.01,169.827 1674.5,129.5C 1675.52,130.002 1675.69,130.668 1675,131.5C 1641.37,170.796 1607.37,209.796 1573,248.5C 1571.52,251.702 1571.18,255.036 1572,258.5C 1607.83,217.333 1643.67,176.167 1679.5,135C 1680.33,134.312 1681,134.479 1681.5,135.5C 1645.52,177.314 1609.35,218.981 1573,260.5C 1571.52,263.702 1571.18,267.036 1572,270.5C 1609.72,226.907 1647.55,183.407 1685.5,140C 1686.33,139.312 1687,139.479 1687.5,140.5C 1649,184.833 1610.5,229.167 1572,273.5C 1571.5,276.482 1571.34,279.482 1571.5,282.5 Z"/></g>
<g><path style="opacity:1" fill="#f8ede9" d="M 449.5,131.5 C 451.028,131.517 451.528,132.184 451,133.5C 407.167,184 363.333,234.5 319.5,285C 318.833,285.667 318.167,285.667 317.5,285C 361.626,233.895 405.626,182.729 449.5,131.5 Z"/></g>
<g><path style="opacity:1" fill="#f8ede9" d="M 455.5,136.5 C 456.289,136.783 456.956,137.283 457.5,138C 413.5,188.667 369.5,239.333 325.5,290C 324.833,290.667 324.167,290.667 323.5,290C 367.626,238.895 411.626,187.729 455.5,136.5 Z"/></g>
<g><path style="opacity:1" fill="#f8ede9" d="M 461.5,141.5 C 462.289,141.783 462.956,142.283 463.5,143C 419.647,193.352 375.98,243.852 332.5,294.5C 331.635,295.583 330.635,295.749 329.5,295C 373.626,243.895 417.626,192.729 461.5,141.5 Z"/></g>
<g><path style="opacity:1" fill="#f8eeea" d="M 1566.5,142.5 C 1567.79,150.962 1567.79,159.295 1566.5,167.5C 1566.67,160.159 1566.5,152.826 1566,145.5C 1557.95,155.375 1550.12,165.375 1542.5,175.5C 1541.33,176.345 1540,177.011 1538.5,177.5C 1547.08,165.251 1556.41,153.584 1566.5,142.5 Z"/></g>
<g><path style="opacity:1" fill="#f8ede9" d="M 1570.5,288.5 C 1569.5,288.5 1568.5,288.5 1567.5,288.5C 1568.83,286.5 1570.17,284.5 1571.5,282.5C 1611.63,236.86 1651.63,191.026 1691.5,145C 1692.33,144.312 1693,144.479 1693.5,145.5C 1652.08,192.911 1611.08,240.578 1570.5,288.5 Z"/></g>
<g><path style="opacity:1" fill="#f7ebe7" d="M 1519.5,146.5 C 1517.55,151.396 1516.89,156.729 1517.5,162.5C 1516.51,157.025 1516.18,151.358 1516.5,145.5C 1517.79,145.263 1518.79,145.596 1519.5,146.5 Z"/></g>
<g><path style="opacity:1" fill="#fcf9f7" d="M 1519.5,146.5 C 1527.04,149.291 1534.71,151.791 1542.5,154C 1534.25,157.137 1525.92,159.971 1517.5,162.5C 1516.89,156.729 1517.55,151.396 1519.5,146.5 Z"/></g>
<g><path style="opacity:1" fill="#f5e6e0" d="M 1566.5,167.5 C 1558.5,170.167 1550.5,172.833 1542.5,175.5C 1550.12,165.375 1557.95,155.375 1566,145.5C 1566.5,152.826 1566.67,160.159 1566.5,167.5 Z"/></g>
<g><path style="opacity:1" fill="#f8ede9" d="M 467.5,146.5 C 468.289,146.783 468.956,147.283 469.5,148C 424.98,199.019 380.647,250.186 336.5,301.5C 335.592,300.21 335.759,298.877 337,297.5C 380.709,247.295 424.209,196.961 467.5,146.5 Z"/></g>
<g><path style="opacity:1" fill="#f8ede9" d="M 473.5,151.5 C 474.289,151.783 474.956,152.283 475.5,153C 430.98,204.019 386.647,255.186 342.5,306.5C 341.417,305.635 341.251,304.635 342,303.5C 386.043,252.961 429.876,202.295 473.5,151.5 Z"/></g>
<g><path style="opacity:1" fill="#f5e7e1" d="M 1521.5,151.5 C 1532.14,153.177 1532.14,154.844 1521.5,156.5C 1521.5,154.833 1521.5,153.167 1521.5,151.5 Z"/></g>
<g><path style="opacity:1" fill="#f8eee9" d="M 1570.5,361.5 C 1570.5,337.167 1570.5,312.833 1570.5,288.5C 1571.31,290.292 1571.81,292.292 1572,294.5C 1613.63,245.871 1655.63,197.538 1698,149.5C 1698.17,150 1698.33,150.5 1698.5,151C 1656.69,200.095 1614.53,248.928 1572,297.5C 1571.33,300.5 1571.33,303.5 1572,306.5C 1616,255.833 1660,205.167 1704,154.5C 1704.17,155 1704.33,155.5 1704.5,156C 1661.04,207.29 1617.04,258.123 1572.5,308.5C 1571.83,326.329 1571.17,343.995 1570.5,361.5 Z"/></g>
<g><path style="opacity:1" fill="#f8ede9" d="M 478.5,157.5 C 479.552,157.351 480.552,157.517 481.5,158C 437,209.167 392.5,260.333 348,311.5C 347.333,310.5 347.333,309.5 348,308.5C 391.709,258.295 435.209,207.961 478.5,157.5 Z"/></g>
<g><path style="opacity:1" fill="#f8ede9" d="M 1709.5,159.5 C 1710.57,160.251 1710.74,161.251 1710,162.5C 1666.32,213.007 1622.49,263.34 1578.5,313.5C 1578.17,313.167 1577.83,312.833 1577.5,312.5C 1621.52,261.48 1665.52,210.48 1709.5,159.5 Z"/></g>
<g><path style="opacity:1" fill="#f8ede9" d="M 484.5,162.5 C 485.376,162.369 486.043,162.702 486.5,163.5C 442.52,214.648 398.353,265.648 354,316.5C 353.333,315.5 353.333,314.5 354,313.5C 397.709,263.295 441.209,212.961 484.5,162.5 Z"/></g>
<g><path style="opacity:1" fill="#f8ede9" d="M 1714.5,164.5 C 1715.38,164.369 1716.04,164.702 1716.5,165.5C 1673.24,216.353 1629.74,267.02 1586,317.5C 1584.95,318.517 1583.78,318.684 1582.5,318C 1627.11,267.236 1671.11,216.07 1714.5,164.5 Z"/></g>
<g><path style="opacity:1" fill="#f8ede9" d="M 490.5,167.5 C 491.376,167.369 492.043,167.702 492.5,168.5C 448.52,219.648 404.353,270.648 360,321.5C 359.333,320.5 359.333,319.5 360,318.5C 403.709,268.295 447.209,217.961 490.5,167.5 Z"/></g>
<g><path style="opacity:1" fill="#f8ede9" d="M 1720.5,169.5 C 1721.38,169.369 1722.04,169.702 1722.5,170.5C 1678.89,222.276 1634.73,273.609 1590,324.5C 1589.5,324 1589,323.5 1588.5,323C 1633.11,272.236 1677.11,221.07 1720.5,169.5 Z"/></g>
<g><path style="opacity:1" fill="#f8ede9" d="M 496.5,172.5 C 497.376,172.369 498.043,172.702 498.5,173.5C 454.511,224.821 410.177,275.821 365.5,326.5C 364.479,325.998 364.312,325.332 365,324.5C 409.043,273.961 452.876,223.295 496.5,172.5 Z"/></g>
<g><path style="opacity:1" fill="#f8ede9" d="M 1726.5,174.5 C 1727.38,174.369 1728.04,174.702 1728.5,175.5C 1687.19,223.981 1645.69,272.314 1604,320.5C 1601.25,323.962 1598.08,326.462 1594.5,328C 1639.08,277.256 1683.08,226.089 1726.5,174.5 Z"/></g>
<g><path style="opacity:1" fill="#f8ede9" d="M 502.5,177.5 C 503.376,177.369 504.043,177.702 504.5,178.5C 460.511,229.821 416.177,280.821 371.5,331.5C 370.479,330.998 370.312,330.332 371,329.5C 415.043,278.961 458.876,228.295 502.5,177.5 Z"/></g>
<g><path style="opacity:1" fill="#f8ede9" d="M 1731.5,180.5 C 1732.55,180.351 1733.55,180.517 1734.5,181C 1690.51,232.487 1646.18,283.654 1601.5,334.5C 1601.17,334.167 1600.83,333.833 1600.5,333.5C 1601.86,331.972 1603.03,330.305 1604,328.5C 1646.75,279.291 1689.25,229.957 1731.5,180.5 Z"/></g>
<g><path style="opacity:1" fill="#f8ede9" d="M 508.5,182.5 C 509.376,182.369 510.043,182.702 510.5,183.5C 466.511,234.821 422.177,285.821 377.5,336.5C 376.479,335.998 376.312,335.332 377,334.5C 421.043,283.961 464.876,233.295 508.5,182.5 Z"/></g>
<g><path style="opacity:1" fill="#f8eee9" d="M 1534.5,183.5 C 1528.86,190.815 1523.19,198.148 1517.5,205.5C 1516.83,205.5 1516.17,205.5 1515.5,205.5C 1520.83,198.5 1526.17,191.5 1531.5,184.5C 1532.21,183.596 1533.21,183.263 1534.5,183.5 Z"/></g>
<g><path style="opacity:1" fill="#f8ede9" d="M 1738.5,184.5 C 1739.29,184.783 1739.96,185.283 1740.5,186C 1696.04,237.114 1651.71,288.28 1607.5,339.5C 1607.17,339.167 1606.83,338.833 1606.5,338.5C 1607.53,337.3 1608.36,335.966 1609,334.5C 1652.41,284.655 1695.58,234.655 1738.5,184.5 Z"/></g>
<g><path style="opacity:1" fill="#f8ede9" d="M 514.5,187.5 C 516.028,187.517 516.528,188.184 516,189.5C 471.991,240.34 427.824,291.007 383.5,341.5C 382.479,340.998 382.312,340.332 383,339.5C 427.043,288.961 470.876,238.295 514.5,187.5 Z"/></g>
<g><path style="opacity:1" fill="#f8ede9" d="M 1743.5,190.5 C 1744.55,190.351 1745.55,190.517 1746.5,191C 1702.04,242.114 1657.71,293.28 1613.5,344.5C 1613.17,344.167 1612.83,343.833 1612.5,343.5C 1613.53,342.3 1614.36,340.966 1615,339.5C 1658.32,290.144 1701.16,240.477 1743.5,190.5 Z"/></g>
<g><path style="opacity:1" fill="#f8ede9" d="M 520.5,192.5 C 522.028,192.517 522.528,193.184 522,194.5C 477.991,245.34 433.824,296.007 389.5,346.5C 388.479,345.998 388.312,345.332 389,344.5C 433.043,293.961 476.876,243.295 520.5,192.5 Z"/></g>
<g><path style="opacity:1" fill="#f8eeea" d="M 1009.5,193.5 C 1042.03,190.988 1062.53,205.321 1071,236.5C 1072.64,268.184 1058.14,288.018 1027.5,296C 999.423,297.878 980.256,285.711 970,259.5C 964.359,226.022 977.526,204.022 1009.5,193.5 Z"/></g>
<g><path style="opacity:1" fill="#f8ede9" d="M 1749.5,195.5 C 1750.38,195.369 1751.04,195.702 1751.5,196.5C 1707.74,247.687 1663.74,298.687 1619.5,349.5C 1619.17,349.167 1618.83,348.833 1618.5,348.5C 1619.53,347.3 1620.36,345.966 1621,344.5C 1664.07,294.942 1706.9,245.275 1749.5,195.5 Z"/></g>
<g><path style="opacity:1" fill="#f8ede9" d="M 526.5,197.5 C 527.573,198.251 527.74,199.251 527,200.5C 483.324,251.007 439.491,301.34 395.5,351.5C 394.479,350.998 394.312,350.332 395,349.5C 439.043,298.961 482.876,248.295 526.5,197.5 Z"/></g>
<g><path style="opacity:1" fill="#f5e6e0" d="M 1009.5,198.5 C 1035.46,195.552 1053.62,205.885 1064,229.5C 1070.55,257.567 1060.72,277.4 1034.5,289C 1006.28,295.14 986.446,284.973 975,258.5C 969.508,228.537 981.008,208.537 1009.5,198.5 Z"/></g>
<g><path style="opacity:1" fill="#f8ede9" d="M 1755.5,201.5 C 1755.5,202.833 1755.5,204.167 1755.5,205.5C 1714.16,252.012 1673.33,299.012 1633,346.5C 1630.32,349.744 1627.49,352.077 1624.5,353.5C 1668.18,302.762 1711.85,252.095 1755.5,201.5 Z"/></g>
<g><path style="opacity:1" fill="#f8ede9" d="M 532.5,202.5 C 533.289,202.783 533.956,203.283 534.5,204C 490.324,255.007 445.991,305.84 401.5,356.5C 401.167,356.167 400.833,355.833 400.5,355.5C 444.523,304.48 488.523,253.48 532.5,202.5 Z"/></g>
<g><path style="opacity:1" fill="#fcf8f7" d="M 1513.5,206.5 C 1512.4,207.605 1511.73,208.938 1511.5,210.5C 1510.21,210.263 1509.21,210.596 1508.5,211.5C 1496.64,215.196 1489.48,223.196 1487,235.5C 1484.39,251.615 1489.55,264.448 1502.5,274C 1505.89,276.076 1509.56,277.242 1513.5,277.5C 1523.65,278.494 1533.99,278.828 1544.5,278.5C 1544.05,279.458 1543.38,280.292 1542.5,281C 1551.83,281.5 1561.16,281.666 1570.5,281.5C 1570.5,281.833 1570.5,282.167 1570.5,282.5C 1568.5,282.5 1566.5,282.5 1564.5,282.5C 1563.5,282.5 1562.5,282.5 1561.5,282.5C 1558.83,282.5 1556.17,282.5 1553.5,282.5C 1552.83,282.5 1552.17,282.5 1551.5,282.5C 1537.12,282.891 1522.79,282.391 1508.5,281C 1490.87,274.098 1482.2,261.098 1482.5,242C 1483.24,221.65 1493.57,209.817 1513.5,206.5 Z"/></g>
<g><path style="opacity:1" fill="#fcf9f8" d="M 1515.5,205.5 C 1516.17,205.5 1516.83,205.5 1517.5,205.5C 1535.17,205.5 1552.83,205.5 1570.5,205.5C 1570.5,215.5 1570.5,225.5 1570.5,235.5C 1552.33,235.17 1534.33,235.503 1516.5,236.5C 1512.92,237.422 1511.25,239.756 1511.5,243.5C 1511.12,248.121 1513.12,250.788 1517.5,251.5C 1534.99,252.497 1552.66,252.83 1570.5,252.5C 1570.5,262.167 1570.5,271.833 1570.5,281.5C 1561.16,281.666 1551.83,281.5 1542.5,281C 1543.38,280.292 1544.05,279.458 1544.5,278.5C 1552.02,278.825 1559.35,278.492 1566.5,277.5C 1566.5,277.167 1566.5,276.833 1566.5,276.5C 1567.49,270.021 1567.82,263.354 1567.5,256.5C 1550.87,255.543 1534.2,255.21 1517.5,255.5C 1510.28,254.605 1506.95,250.438 1507.5,243C 1507.47,236.865 1510.47,233.365 1516.5,232.5C 1533.5,232.5 1550.5,232.5 1567.5,232.5C 1567.83,224.648 1567.49,216.982 1566.5,209.5C 1548.66,209.17 1530.99,209.503 1513.5,210.5C 1512.83,210.5 1512.17,210.5 1511.5,210.5C 1511.73,208.938 1512.4,207.605 1513.5,206.5C 1514.17,206.167 1514.83,205.833 1515.5,205.5 Z"/></g>
<g><path style="opacity:1" fill="#f8ede9" d="M 537.5,208.5 C 538.376,208.369 539.043,208.702 539.5,209.5C 495.52,260.648 451.353,311.648 407,362.5C 406.5,362 406,361.5 405.5,361C 449.709,310.295 493.709,259.461 537.5,208.5 Z"/></g>
<g><path style="opacity:1" fill="#f8eee9" d="M 1508.5,211.5 C 1509.21,210.596 1510.21,210.263 1511.5,210.5C 1512.17,210.5 1512.83,210.5 1513.5,210.5C 1512.12,213.726 1510.46,214.059 1508.5,211.5 Z"/></g>
<g><path style="opacity:1" fill="#f5e6e0" d="M 1566.5,209.5 C 1566.5,216.833 1566.5,224.167 1566.5,231.5C 1549.66,231.17 1532.99,231.503 1516.5,232.5C 1510.47,233.365 1507.47,236.865 1507.5,243C 1506.95,250.438 1510.28,254.605 1517.5,255.5C 1532.66,256.331 1547.99,256.831 1563.5,257C 1557.65,263.352 1551.98,269.852 1546.5,276.5C 1535.52,277.499 1524.52,277.832 1513.5,277.5C 1509.56,277.242 1505.89,276.076 1502.5,274C 1489.55,264.448 1484.39,251.615 1487,235.5C 1489.48,223.196 1496.64,215.196 1508.5,211.5C 1510.46,214.059 1512.12,213.726 1513.5,210.5C 1530.99,209.503 1548.66,209.17 1566.5,209.5 Z"/></g>
<g><path style="opacity:1" fill="#f8ede9" d="M 543.5,213.5 C 545.028,213.517 545.528,214.184 545,215.5C 501,266.167 457,316.833 413,367.5C 412.5,367 412,366.5 411.5,366C 455.709,315.295 499.709,264.461 543.5,213.5 Z"/></g>
<g><path style="opacity:1" fill="#f8ede9" d="M 1755.5,213.5 C 1755.5,214.5 1755.5,215.5 1755.5,216.5C 1716.21,261.055 1677.38,306.055 1639,351.5C 1636.32,354.744 1633.49,357.077 1630.5,358.5C 1671.84,309.827 1713.51,261.494 1755.5,213.5 Z"/></g>
<g><path style="opacity:1" fill="#f8ede9" d="M 549.5,218.5 C 551.028,218.517 551.528,219.184 551,220.5C 507,271.167 463,321.833 419,372.5C 418.5,372 418,371.5 417.5,371C 461.709,320.295 505.709,269.461 549.5,218.5 Z"/></g>
<g><path style="opacity:1" fill="#f8ede9" d="M 555.5,223.5 C 557.028,223.517 557.528,224.184 557,225.5C 513,276.167 469,326.833 425,377.5C 424.5,377 424,376.5 423.5,376C 467.709,325.295 511.709,274.461 555.5,223.5 Z"/></g>
<g><path style="opacity:1" fill="#f8ede9" d="M 1755.5,225.5 C 1755.5,226.5 1755.5,227.5 1755.5,228.5C 1716.25,273.948 1676.75,319.282 1637,364.5C 1636.83,364.167 1636.67,363.833 1636.5,363.5C 1675.71,317.055 1715.38,271.055 1755.5,225.5 Z"/></g>
<g><path style="opacity:1" fill="#f8ede9" d="M 561.5,228.5 C 563.028,228.517 563.528,229.184 563,230.5C 518.991,281.34 474.824,332.007 430.5,382.5C 430.167,382.167 429.833,381.833 429.5,381.5C 473.523,330.48 517.523,279.48 561.5,228.5 Z"/></g>
<g><path style="opacity:1" fill="#faf4f2" d="M 1566.5,209.5 C 1567.49,216.982 1567.83,224.648 1567.5,232.5C 1550.5,232.5 1533.5,232.5 1516.5,232.5C 1532.99,231.503 1549.66,231.17 1566.5,231.5C 1566.5,224.167 1566.5,216.833 1566.5,209.5 Z"/></g>
<g><path style="opacity:1" fill="#f8eeea" d="M 1343.5,231.5 C 1368.87,230.419 1384.71,242.086 1391,266.5C 1392.57,284.535 1385.73,298.369 1370.5,308C 1348.79,317.197 1330.62,312.697 1316,294.5C 1304.46,272.174 1308.62,253.341 1328.5,238C 1333.49,235.514 1338.49,233.348 1343.5,231.5 Z"/></g>
<g><path style="opacity:1" fill="#f8ede9" d="M 567.5,233.5 C 569.028,233.517 569.528,234.184 569,235.5C 524.991,286.34 480.824,337.007 436.5,387.5C 436.167,387.167 435.833,386.833 435.5,386.5C 479.523,335.48 523.523,284.48 567.5,233.5 Z"/></g>
<g><path style="opacity:1" fill="#f7ebe6" d="M 1570.5,205.5 C 1571.49,215.653 1571.83,225.986 1571.5,236.5C 1553.17,236.5 1534.83,236.5 1516.5,236.5C 1534.33,235.503 1552.33,235.17 1570.5,235.5C 1570.5,225.5 1570.5,215.5 1570.5,205.5 Z"/></g>
<g><path style="opacity:1" fill="#f5e6e0" d="M 1344.5,236.5 C 1362.93,235.294 1376.1,242.96 1384,259.5C 1389.13,292.701 1374.96,308.534 1341.5,307C 1322.49,300.144 1313.66,286.644 1315,266.5C 1319.02,250.652 1328.85,240.652 1344.5,236.5 Z"/></g>
<g><path style="opacity:1" fill="#f8ede9" d="M 573.5,238.5 C 575.028,238.517 575.528,239.184 575,240.5C 530.991,291.34 486.824,342.007 442.5,392.5C 442.167,392.167 441.833,391.833 441.5,391.5C 485.523,340.48 529.523,289.48 573.5,238.5 Z"/></g>
<g><path style="opacity:1" fill="#f8ede9" d="M 1755.5,237.5 C 1755.5,238.5 1755.5,239.5 1755.5,240.5C 1718.4,283.436 1681.07,326.27 1643.5,369C 1642.67,369.688 1642,369.521 1641.5,368.5C 1679.55,324.788 1717.55,281.122 1755.5,237.5 Z"/></g>
<g><path style="opacity:1" fill="#f8ede9" d="M 579.5,243.5 C 580.573,244.251 580.74,245.251 580,246.5C 536.324,297.007 492.491,347.34 448.5,397.5C 448.167,397.167 447.833,396.833 447.5,396.5C 491.523,345.48 535.523,294.48 579.5,243.5 Z"/></g>
<g><path style="opacity:1" fill="#f8ede9" d="M 1755.5,249.5 C 1755.5,250.5 1755.5,251.5 1755.5,252.5C 1720.3,293.022 1684.97,333.522 1649.5,374C 1648.67,374.688 1648,374.521 1647.5,373.5C 1683.18,331.826 1719.18,290.493 1755.5,249.5 Z"/></g>
<g><path style="opacity:1" fill="#f8ede9" d="M 1755.5,261.5 C 1755.5,262.5 1755.5,263.5 1755.5,264.5C 1723.82,300.012 1692.66,336.012 1662,372.5C 1659.61,375.597 1656.78,377.763 1653.5,379C 1687.37,339.641 1721.37,300.474 1755.5,261.5 Z"/></g>
<g><path style="opacity:1" fill="#f8eeeb" d="M 1517.5,255.5 C 1534.2,255.21 1550.87,255.543 1567.5,256.5C 1567.82,263.354 1567.49,270.021 1566.5,276.5C 1566.66,273.813 1566.5,271.146 1566,268.5C 1564.02,271.312 1561.86,273.978 1559.5,276.5C 1561.74,277.474 1564.08,277.808 1566.5,277.5C 1559.35,278.492 1552.02,278.825 1544.5,278.5C 1533.99,278.828 1523.65,278.494 1513.5,277.5C 1524.52,277.832 1535.52,277.499 1546.5,276.5C 1551.98,269.852 1557.65,263.352 1563.5,257C 1547.99,256.831 1532.66,256.331 1517.5,255.5 Z"/></g>
<g><path style="opacity:1" fill="#f5e6e0" d="M 1565.5,257.5 C 1566.85,260.772 1566.68,264.106 1565,267.5C 1561.8,270.369 1558.96,273.535 1556.5,277C 1554.1,277.814 1551.76,277.647 1549.5,276.5C 1554.86,270.147 1560.19,263.814 1565.5,257.5 Z"/></g>
<g><path style="opacity:1" fill="#f5e6e0" d="M 1566.5,276.5 C 1566.5,276.833 1566.5,277.167 1566.5,277.5C 1564.08,277.808 1561.74,277.474 1559.5,276.5C 1561.86,273.978 1564.02,271.312 1566,268.5C 1566.5,271.146 1566.66,273.813 1566.5,276.5 Z"/></g>
<g><path style="opacity:1" fill="#f8ede9" d="M 1755.5,273.5 C 1755.5,274.5 1755.5,275.5 1755.5,276.5C 1726.2,309.974 1697.03,343.641 1668,377.5C 1665.61,380.597 1662.78,382.763 1659.5,384C 1690.99,346.678 1722.99,309.845 1755.5,273.5 Z"/></g>
<g><path style="opacity:1" fill="#f8eee9" d="M 1551.5,282.5 C 1552.17,282.5 1552.83,282.5 1553.5,282.5C 1552.56,284.772 1551.23,286.772 1549.5,288.5C 1548.83,288.5 1548.17,288.5 1547.5,288.5C 1548.42,286.246 1549.75,284.246 1551.5,282.5 Z"/></g>
<g><path style="opacity:1" fill="#f5e6e0" d="M 1553.5,282.5 C 1556.17,282.5 1558.83,282.5 1561.5,282.5C 1559.75,284.246 1558.42,286.246 1557.5,288.5C 1554.83,288.5 1552.17,288.5 1549.5,288.5C 1551.23,286.772 1552.56,284.772 1553.5,282.5 Z"/></g>
<g><path style="opacity:1" fill="#f8ede9" d="M 1561.5,282.5 C 1562.5,282.5 1563.5,282.5 1564.5,282.5C 1562.83,284.5 1561.17,286.5 1559.5,288.5C 1558.83,288.5 1558.17,288.5 1557.5,288.5C 1558.42,286.246 1559.75,284.246 1561.5,282.5 Z"/></g>
<g><path style="opacity:1" fill="#f5e6e0" d="M 1564.5,282.5 C 1566.5,282.5 1568.5,282.5 1570.5,282.5C 1570.83,282.5 1571.17,282.5 1571.5,282.5C 1570.17,284.5 1568.83,286.5 1567.5,288.5C 1564.83,288.5 1562.17,288.5 1559.5,288.5C 1561.17,286.5 1562.83,284.5 1564.5,282.5 Z"/></g>
<g><path style="opacity:1" fill="#f8ede9" d="M 1755.5,285.5 C 1755.5,286.5 1755.5,287.5 1755.5,288.5C 1727.16,320.012 1699.33,352.012 1672,384.5C 1670.5,386 1669,387.5 1667.5,389C 1666.67,389.688 1666,389.521 1665.5,388.5C 1695.28,353.907 1725.28,319.574 1755.5,285.5 Z"/></g>
<g><path style="opacity:1" fill="#fcf8f7" d="M 1547.5,288.5 C 1548.17,288.5 1548.83,288.5 1549.5,288.5C 1552.17,288.5 1554.83,288.5 1557.5,288.5C 1558.17,288.5 1558.83,288.5 1559.5,288.5C 1562.17,288.5 1564.83,288.5 1567.5,288.5C 1568.5,288.5 1569.5,288.5 1570.5,288.5C 1570.5,312.833 1570.5,337.167 1570.5,361.5C 1562.17,361.5 1553.83,361.5 1545.5,361.5C 1545.5,354.167 1545.5,346.833 1545.5,339.5C 1524.83,339.5 1504.17,339.5 1483.5,339.5C 1483.5,329.5 1483.5,319.5 1483.5,309.5C 1504.17,309.5 1524.83,309.5 1545.5,309.5C 1544.87,302.087 1545.54,295.087 1547.5,288.5 Z"/></g>
<g><path style="opacity:1" fill="#f5e6e0" d="M 1549.5,293.5 C 1553.55,293.176 1557.55,293.509 1561.5,294.5C 1560.83,295.5 1560.17,296.5 1559.5,297.5C 1559.83,297.833 1560.17,298.167 1560.5,298.5C 1562.39,297.027 1564.06,295.36 1565.5,293.5C 1566.37,314.365 1566.7,335.365 1566.5,356.5C 1560.83,356.5 1555.17,356.5 1549.5,356.5C 1549.5,349.5 1549.5,342.5 1549.5,335.5C 1528.83,335.5 1508.17,335.5 1487.5,335.5C 1487.5,328.167 1487.5,320.833 1487.5,313.5C 1508.17,313.5 1528.83,313.5 1549.5,313.5C 1549.5,306.833 1549.5,300.167 1549.5,293.5 Z"/></g>
<g><path style="opacity:1" fill="#f8ede9" d="M 1755.5,297.5 C 1755.5,298.5 1755.5,299.5 1755.5,300.5C 1728.03,331.473 1700.7,362.64 1673.5,394C 1672.67,394.688 1672,394.521 1671.5,393.5C 1699.18,361.159 1727.18,329.159 1755.5,297.5 Z"/></g>
<g><path style="opacity:1" fill="#f8f0ec" d="M 1549.5,293.5 C 1555.31,292.51 1561.31,292.177 1567.5,292.5C 1567.5,314.167 1567.5,335.833 1567.5,357.5C 1561.31,357.823 1555.31,357.49 1549.5,356.5C 1555.17,356.5 1560.83,356.5 1566.5,356.5C 1566.7,335.365 1566.37,314.365 1565.5,293.5C 1564.06,295.36 1562.39,297.027 1560.5,298.5C 1560.17,298.167 1559.83,297.833 1559.5,297.5C 1560.17,296.5 1560.83,295.5 1561.5,294.5C 1557.55,293.509 1553.55,293.176 1549.5,293.5 Z"/></g>
<g><path style="opacity:1" fill="#f8ede9" d="M 1755.5,308.5 C 1755.5,309.833 1755.5,311.167 1755.5,312.5C 1729.38,341.387 1703.71,370.72 1678.5,400.5C 1678.17,400 1677.83,399.5 1677.5,399C 1703.39,368.687 1729.39,338.52 1755.5,308.5 Z"/></g>
<g><path style="opacity:1" fill="#f8ede9" d="M 1755.5,320.5 C 1755.5,321.5 1755.5,322.5 1755.5,323.5C 1731.9,350.936 1708.07,378.27 1684,405.5C 1683.83,405 1683.67,404.5 1683.5,404C 1707.35,375.986 1731.35,348.153 1755.5,320.5 Z"/></g>
<g><path style="opacity:1" fill="#f8ede9" d="M 1755.5,332.5 C 1755.5,333.5 1755.5,334.5 1755.5,335.5C 1733.53,360.307 1711.7,385.307 1690,410.5C 1689.83,410 1689.67,409.5 1689.5,409C 1710.98,383.024 1732.98,357.524 1755.5,332.5 Z"/></g>
<g><path style="opacity:1" fill="#f8eeea" d="M 1070.5,343.5 C 1078.77,349.767 1086.77,356.434 1094.5,363.5C 1102.19,356.646 1110.02,349.979 1118,343.5C 1125.98,349.979 1133.81,356.646 1141.5,363.5C 1149.19,356.646 1157.02,349.979 1165,343.5C 1172.74,350.285 1180.57,356.952 1188.5,363.5C 1196.17,356.833 1203.83,350.167 1211.5,343.5C 1219.19,350.354 1227.02,357.021 1235,363.5C 1242.98,357.021 1250.81,350.354 1258.5,343.5C 1266.17,350.167 1273.83,356.833 1281.5,363.5C 1289.43,356.952 1297.26,350.285 1305,343.5C 1312.98,349.979 1320.81,356.646 1328.5,363.5C 1335.85,356.979 1343.35,350.646 1351,344.5C 1351.69,345.025 1352.19,345.692 1352.5,346.5C 1344.92,353.961 1336.92,360.961 1328.5,367.5C 1320.83,360.833 1313.17,354.167 1305.5,347.5C 1297.57,354.048 1289.74,360.715 1282,367.5C 1274.02,361.021 1266.19,354.354 1258.5,347.5C 1250.81,354.354 1242.98,361.021 1235,367.5C 1227.02,361.021 1219.19,354.354 1211.5,347.5C 1203.81,354.354 1195.98,361.021 1188,367.5C 1180.33,360.833 1172.67,354.167 1165,347.5C 1157.02,353.979 1149.19,360.646 1141.5,367.5C 1133.81,360.646 1125.98,353.979 1118,347.5C 1110.02,353.979 1102.19,360.646 1094.5,367.5C 1086.83,360.833 1079.17,354.167 1071.5,347.5C 1063.81,354.354 1055.98,361.021 1048,367.5C 1039.19,360.673 1031.19,353.339 1024,345.5C 1024.72,344.549 1025.55,344.383 1026.5,345C 1033.37,351.541 1040.54,357.707 1048,363.5C 1055.99,357.339 1063.49,350.673 1070.5,343.5 Z"/></g>
<g><path style="opacity:1" fill="#fcf8f7" d="M 1514.5,368.5 C 1533.17,368.5 1551.83,368.5 1570.5,368.5C 1570.5,378.167 1570.5,387.833 1570.5,397.5C 1552.83,397.333 1535.16,397.5 1517.5,398C 1513.44,398.891 1511.44,401.391 1511.5,405.5C 1511.18,409.547 1512.85,412.214 1516.5,413.5C 1534.33,414.497 1552.33,414.83 1570.5,414.5C 1570.5,424.5 1570.5,434.5 1570.5,444.5C 1551.5,444.667 1532.5,444.5 1513.5,444C 1495.77,440.273 1485.61,429.439 1483,411.5C 1480.39,390.482 1488.89,376.315 1508.5,369C 1510.47,368.505 1512.47,368.338 1514.5,368.5 Z"/></g>
<g><path style="opacity:1" fill="#f9f0ed" d="M 1514.5,368.5 C 1533.33,367.503 1552.33,367.17 1571.5,367.5C 1571.83,377.681 1571.49,387.681 1570.5,397.5C 1570.5,387.833 1570.5,378.167 1570.5,368.5C 1551.83,368.5 1533.17,368.5 1514.5,368.5 Z"/></g>
<g><path style="opacity:1" fill="#f8ede9" d="M 361.5,761.5 C 360.833,761.5 360.167,761.5 359.5,761.5C 464.482,631.024 569.982,501.024 676,371.5C 676.5,371.667 677,371.833 677.5,372C 572.039,501.772 466.705,631.606 361.5,761.5 Z"/></g>
<g><path style="opacity:1" fill="#f8eeea" d="M 1070.5,370.5 C 1078.77,376.767 1086.77,383.434 1094.5,390.5C 1102.19,383.646 1110.02,376.979 1118,370.5C 1125.98,376.979 1133.81,383.646 1141.5,390.5C 1149.19,383.646 1157.02,376.979 1165,370.5C 1172.74,377.285 1180.57,383.952 1188.5,390.5C 1196.17,383.833 1203.83,377.167 1211.5,370.5C 1219.19,377.354 1227.02,384.021 1235,390.5C 1242.98,384.021 1250.81,377.354 1258.5,370.5C 1266.17,377.167 1273.83,383.833 1281.5,390.5C 1289.43,383.952 1297.26,377.285 1305,370.5C 1312.98,376.979 1320.81,383.646 1328.5,390.5C 1335.85,383.979 1343.35,377.646 1351,371.5C 1351.69,372.025 1352.19,372.692 1352.5,373.5C 1344.92,380.961 1336.92,387.961 1328.5,394.5C 1320.83,387.833 1313.17,381.167 1305.5,374.5C 1297.57,381.048 1289.74,387.715 1282,394.5C 1274.02,388.021 1266.19,381.354 1258.5,374.5C 1250.81,381.354 1242.98,388.021 1235,394.5C 1227.02,388.021 1219.19,381.354 1211.5,374.5C 1203.81,381.354 1195.98,388.021 1188,394.5C 1180.33,387.833 1172.67,381.167 1165,374.5C 1157.02,380.979 1149.19,387.646 1141.5,394.5C 1133.81,387.646 1125.98,380.979 1118,374.5C 1110.02,380.979 1102.19,387.646 1094.5,394.5C 1086.83,387.833 1079.17,381.167 1071.5,374.5C 1063.81,381.354 1055.98,388.021 1048,394.5C 1039.19,387.673 1031.19,380.339 1024,372.5C 1024.72,371.549 1025.55,371.383 1026.5,372C 1033.37,378.541 1040.54,384.707 1048,390.5C 1055.99,384.339 1063.49,377.673 1070.5,370.5 Z"/></g>
<g><path style="opacity:1" fill="#f8eee9" d="M 1513.5,372.5 C 1531.33,371.503 1549.33,371.17 1567.5,371.5C 1567.82,379.019 1567.49,386.352 1566.5,393.5C 1566.5,386.5 1566.5,379.5 1566.5,372.5C 1548.83,372.5 1531.17,372.5 1513.5,372.5 Z"/></g>
<g><path style="opacity:1" fill="#f5e6e0" d="M 1513.5,372.5 C 1531.17,372.5 1548.83,372.5 1566.5,372.5C 1566.5,379.5 1566.5,386.5 1566.5,393.5C 1549.83,393.333 1533.16,393.5 1516.5,394C 1510.3,395.363 1507.3,399.196 1507.5,405.5C 1507.21,412.114 1510.21,416.28 1516.5,418C 1533.16,418.5 1549.83,418.667 1566.5,418.5C 1566.5,425.833 1566.5,433.167 1566.5,440.5C 1548.5,440.667 1530.5,440.5 1512.5,440C 1494.97,434.796 1486.3,422.963 1486.5,404.5C 1486.87,386.473 1495.87,375.806 1513.5,372.5 Z"/></g>
<g><path style="opacity:1" fill="#f8ede9" d="M 1516.5,413.5 C 1534.83,413.5 1553.17,413.5 1571.5,413.5C 1571.83,424.014 1571.49,434.347 1570.5,444.5C 1570.5,434.5 1570.5,424.5 1570.5,414.5C 1552.33,414.83 1534.33,414.497 1516.5,413.5 Z"/></g>
<g><path style="opacity:1" fill="#f8eeea" d="M 189.5,424.5 C 221.509,424.009 237.342,439.676 237,471.5C 229.515,499.005 211.682,509.838 183.5,504C 161.931,494.323 153.431,477.823 158,454.5C 162.87,438.499 173.37,428.499 189.5,424.5 Z"/></g>
<g><path style="opacity:1" fill="#f5e6e0" d="M 191.5,429.5 C 220.29,430.074 233.79,444.74 232,473.5C 224.664,494.757 209.831,503.59 187.5,500C 168.115,492.401 159.615,478.235 162,457.5C 166.281,442.142 176.114,432.809 191.5,429.5 Z"/></g>
<g><path style="opacity:1" fill="#f8ede9" d="M 1492.5,761.5 C 1491.5,761.5 1490.5,761.5 1489.5,761.5C 1574.14,657.186 1658.81,552.852 1743.5,448.5C 1744.58,449.365 1744.75,450.365 1744,451.5C 1659.95,554.707 1576.12,658.041 1492.5,761.5 Z"/></g>
<g><path style="opacity:1" fill="#fcf9f8" d="M 1483.5,526.5 C 1491.17,526.666 1498.84,526.5 1506.5,526C 1505.26,525.209 1503.92,524.709 1502.5,524.5C 1496.45,522.705 1490.45,520.705 1484.5,518.5C 1483.17,510.167 1483.17,501.833 1484.5,493.5C 1491.39,490.704 1498.39,488.204 1505.5,486C 1498.17,485.5 1490.84,485.334 1483.5,485.5C 1483.5,475.5 1483.5,465.5 1483.5,455.5C 1512.5,455.5 1541.5,455.5 1570.5,455.5C 1570.5,466.833 1570.5,478.167 1570.5,489.5C 1555.98,494.425 1541.64,499.925 1527.5,506C 1541.36,511.759 1555.36,517.259 1569.5,522.5C 1570.5,533.814 1570.83,545.147 1570.5,556.5C 1541.5,556.5 1512.5,556.5 1483.5,556.5C 1483.5,546.5 1483.5,536.5 1483.5,526.5 Z"/></g>
<g><path style="opacity:1" fill="#f8ede9" d="M 1092.5,455.5 C 1093.38,455.369 1094.04,455.702 1094.5,456.5C 1050.57,508.02 1006.4,559.353 962,610.5C 961.5,610 961,609.5 960.5,609C 1005.11,558.236 1049.11,507.07 1092.5,455.5 Z"/></g>
<g><path style="opacity:1" fill="#fbf5f4" d="M 1566.5,486.5 C 1566.5,477.5 1566.5,468.5 1566.5,459.5C 1540.17,459.5 1513.83,459.5 1487.5,459.5C 1487.5,466.833 1487.5,474.167 1487.5,481.5C 1486.51,474.018 1486.17,466.352 1486.5,458.5C 1513.5,458.5 1540.5,458.5 1567.5,458.5C 1567.83,468.015 1567.49,477.348 1566.5,486.5 Z"/></g>
<g><path style="opacity:1" fill="#f5e6e0" d="M 1566.5,486.5 C 1549.48,492.895 1532.48,499.395 1515.5,506C 1532.21,512.402 1548.87,518.902 1565.5,525.5C 1566.5,534.475 1566.83,543.475 1566.5,552.5C 1540.17,552.5 1513.83,552.5 1487.5,552.5C 1487.5,545.167 1487.5,537.833 1487.5,530.5C 1498.35,530.828 1509.01,530.494 1519.5,529.5C 1519.67,528.178 1519.34,527.011 1518.5,526C 1508.39,522.779 1498.39,519.279 1488.5,515.5C 1487.19,508.944 1487.19,502.444 1488.5,496C 1499.37,492.656 1510.03,488.823 1520.5,484.5C 1520.17,483.833 1519.83,483.167 1519.5,482.5C 1508.85,481.501 1498.19,481.168 1487.5,481.5C 1487.5,474.167 1487.5,466.833 1487.5,459.5C 1513.83,459.5 1540.17,459.5 1566.5,459.5C 1566.5,468.5 1566.5,477.5 1566.5,486.5 Z"/></g>
<g><path style="opacity:1" fill="#f8ede9" d="M 1098.5,461.5 C 1099.24,461.369 1099.91,461.536 1100.5,462C 1056.45,513.26 1012.28,564.427 968,615.5C 967.5,615 967,614.5 966.5,614C 1010.71,563.295 1054.71,512.461 1098.5,461.5 Z"/></g>
<g><path style="opacity:1" fill="#f8ede9" d="M 1104.5,466.5 C 1105.24,466.369 1105.91,466.536 1106.5,467C 1062.71,518.462 1018.54,569.628 974,620.5C 973.5,620 973,619.5 972.5,619C 1016.71,568.295 1060.71,517.461 1104.5,466.5 Z"/></g>
<g><path style="opacity:1" fill="#f8ede9" d="M 1110.5,471.5 C 1111.24,471.369 1111.91,471.536 1112.5,472C 1068.7,523.635 1024.36,574.802 979.5,625.5C 979.167,625.167 978.833,624.833 978.5,624.5C 1022.52,573.48 1066.52,522.48 1110.5,471.5 Z"/></g>
<g><path style="opacity:1" fill="#f8ede9" d="M 1116.5,476.5 C 1117.24,476.369 1117.91,476.536 1118.5,477C 1074.51,528.487 1030.18,579.654 985.5,630.5C 985.167,630.167 984.833,629.833 984.5,629.5C 1028.52,578.48 1072.52,527.48 1116.5,476.5 Z"/></g>
<g><path style="opacity:1" fill="#f8ede9" d="M 1121.5,481.5 C 1122.38,481.369 1123.04,481.702 1123.5,482.5C 1079.73,533.727 1035.73,584.727 991.5,635.5C 991.167,635.167 990.833,634.833 990.5,634.5C 991.861,632.972 993.028,631.305 994,629.5C 1036.75,580.291 1079.25,530.957 1121.5,481.5 Z"/></g>
<g><path style="opacity:1" fill="#f8ede9" d="M 1127.5,486.5 C 1128.38,486.369 1129.04,486.702 1129.5,487.5C 1085.73,538.727 1041.73,589.727 997.5,640.5C 997.167,640.167 996.833,639.833 996.5,639.5C 997.531,638.3 998.365,636.966 999,635.5C 1042.32,586.144 1085.16,536.477 1127.5,486.5 Z"/></g>
<g><path style="opacity:1" fill="#f8ede9" d="M 1133.5,491.5 C 1134.38,491.369 1135.04,491.702 1135.5,492.5C 1091.74,543.687 1047.74,594.687 1003.5,645.5C 1002.59,644.21 1002.76,642.877 1004,641.5C 1047.42,591.624 1090.59,541.624 1133.5,491.5 Z"/></g>
<g><path style="opacity:1" fill="#f8ede9" d="M 1139.5,496.5 C 1140.38,496.369 1141.04,496.702 1141.5,497.5C 1097.74,548.687 1053.74,599.687 1009.5,650.5C 1008.59,649.21 1008.76,647.877 1010,646.5C 1053.38,596.628 1096.54,546.628 1139.5,496.5 Z"/></g>
<g><path style="opacity:1" fill="#f8ede9" d="M 1145.5,501.5 C 1147.03,501.517 1147.53,502.184 1147,503.5C 1103.52,554.28 1059.69,604.78 1015.5,655C 1014.83,655.667 1014.17,655.667 1013.5,655C 1057.63,603.895 1101.63,552.729 1145.5,501.5 Z"/></g>
<g><path style="opacity:1" fill="#f8ede9" d="M 1151.5,506.5 C 1152.38,506.369 1153.04,506.702 1153.5,507.5C 1109.69,558.481 1065.69,609.314 1021.5,660C 1020.83,660.667 1020.17,660.667 1019.5,660C 1063.63,608.895 1107.63,557.729 1151.5,506.5 Z"/></g>
<g><path style="opacity:1" fill="#f8ede9" d="M 1157.5,511.5 C 1158.29,511.783 1158.96,512.283 1159.5,513C 1115.5,563.667 1071.5,614.333 1027.5,665C 1026.83,665.667 1026.17,665.667 1025.5,665C 1069.34,613.666 1113.34,562.5 1157.5,511.5 Z"/></g>
<g><path style="opacity:1" fill="#f8ede9" d="M 1163.5,516.5 C 1164.29,516.783 1164.96,517.283 1165.5,518C 1121.5,568.667 1077.5,619.333 1033.5,670C 1032.83,670.667 1032.17,670.667 1031.5,670C 1075.34,618.666 1119.34,567.5 1163.5,516.5 Z"/></g>
<g><path style="opacity:1" fill="#f8ede9" d="M 1169.5,521.5 C 1170.29,521.783 1170.96,522.283 1171.5,523C 1127.5,573.667 1083.5,624.333 1039.5,675C 1038.83,675.667 1038.17,675.667 1037.5,675C 1081.34,623.666 1125.34,572.5 1169.5,521.5 Z"/></g>
<g><path style="opacity:1" fill="#f7ebe7" d="M 1502.5,524.5 C 1503.92,524.709 1505.26,525.209 1506.5,526C 1498.84,526.5 1491.17,526.666 1483.5,526.5C 1489.83,525.833 1496.17,525.167 1502.5,524.5 Z"/></g>
<g><path style="opacity:1" fill="#f8ede9" d="M 1175.5,526.5 C 1176.29,526.783 1176.96,527.283 1177.5,528C 1132.98,579.019 1088.65,630.186 1044.5,681.5C 1043.59,680.21 1043.76,678.877 1045,677.5C 1088.71,627.295 1132.21,576.961 1175.5,526.5 Z"/></g>
<g><path style="opacity:1" fill="#fbf5f2" d="M 1519.5,529.5 C 1509.01,530.494 1498.35,530.828 1487.5,530.5C 1487.5,537.833 1487.5,545.167 1487.5,552.5C 1486.51,545.018 1486.17,537.352 1486.5,529.5C 1497.5,529.5 1508.5,529.5 1519.5,529.5 Z"/></g>
<g><path style="opacity:1" fill="#f8ede9" d="M 1181.5,531.5 C 1182.29,531.783 1182.96,532.283 1183.5,533C 1139,584.167 1094.5,635.333 1050,686.5C 1049.68,685.092 1050.02,683.759 1051,682.5C 1094.71,632.295 1138.21,581.961 1181.5,531.5 Z"/></g>
<g><path style="opacity:1" fill="#f8ede9" d="M 1186.5,537.5 C 1187.38,537.369 1188.04,537.702 1188.5,538.5C 1144.52,589.648 1100.35,640.648 1056,691.5C 1055.33,690.5 1055.33,689.5 1056,688.5C 1099.71,638.295 1143.21,587.961 1186.5,537.5 Z"/></g>
<g><path style="opacity:1" fill="#f8eee9" d="M 1192.5,542.5 C 1193.38,542.369 1194.04,542.702 1194.5,543.5C 1150.52,594.648 1106.35,645.648 1062,696.5C 1061.33,695.5 1061.33,694.5 1062,693.5C 1105.71,643.295 1149.21,592.961 1192.5,542.5 Z"/></g>
<g><path style="opacity:1" fill="#f8ede9" d="M 1198.5,547.5 C 1199.38,547.369 1200.04,547.702 1200.5,548.5C 1156.51,599.821 1112.18,650.821 1067.5,701.5C 1066.48,700.998 1066.31,700.332 1067,699.5C 1111.04,648.961 1154.88,598.295 1198.5,547.5 Z"/></g>
<g><path style="opacity:1" fill="#f7ece8" d="M -0.5,557.5 C -0.5,556.167 -0.5,554.833 -0.5,553.5C 1.62976,551.873 3.62976,550.04 5.5,548C 6.48346,547.409 7.15013,547.743 7.5,549C 5.34563,552.321 2.67896,555.154 -0.5,557.5 Z"/></g>
<g><path style="opacity:1" fill="#f8ede9" d="M 1204.5,552.5 C 1205.38,552.369 1206.04,552.702 1206.5,553.5C 1162.51,604.821 1118.18,655.821 1073.5,706.5C 1072.48,705.998 1072.31,705.332 1073,704.5C 1117.04,653.961 1160.88,603.295 1204.5,552.5 Z"/></g>
<g><path style="opacity:1" fill="#f7ede8" d="M -0.5,567.5 C -0.5,566.5 -0.5,565.5 -0.5,564.5C 3.2976,561.204 6.96427,557.704 10.5,554C 11.635,553.251 12.635,553.417 13.5,554.5C 9.44069,559.562 4.77402,563.895 -0.5,567.5 Z"/></g>
<g><path style="opacity:1" fill="#f8ede9" d="M 1210.5,557.5 C 1211.38,557.369 1212.04,557.702 1212.5,558.5C 1168.51,609.821 1124.18,660.821 1079.5,711.5C 1078.48,710.998 1078.31,710.332 1079,709.5C 1123.04,658.961 1166.88,608.295 1210.5,557.5 Z"/></g>
<g><path style="opacity:1" fill="#f8ede9" d="M -0.5,578.5 C -0.5,577.5 -0.5,576.5 -0.5,575.5C 5.29805,570.203 10.9647,564.703 16.5,559C 17.3317,558.312 17.9984,558.479 18.5,559.5C 12.5331,566.134 6.19979,572.467 -0.5,578.5 Z"/></g>
<g><path style="opacity:1" fill="#f8ede9" d="M 1216.5,562.5 C 1218.03,562.517 1218.53,563.184 1218,564.5C 1173.99,615.34 1129.82,666.007 1085.5,716.5C 1084.48,715.998 1084.31,715.332 1085,714.5C 1129.04,663.961 1172.88,613.295 1216.5,562.5 Z"/></g>
<g><path style="opacity:1" fill="#f8ede9" d="M -0.5,589.5 C -0.5,588.5 -0.5,587.5 -0.5,586.5C 6.9649,579.536 14.2982,572.369 21.5,565C 22.635,564.251 23.635,564.417 24.5,565.5C 16.1991,573.466 7.86577,581.466 -0.5,589.5 Z"/></g>
<g><path style="opacity:1" fill="#f8ede9" d="M 1222.5,567.5 C 1224.03,567.517 1224.53,568.184 1224,569.5C 1179.99,620.34 1135.82,671.007 1091.5,721.5C 1090.48,720.998 1090.31,720.332 1091,719.5C 1135.04,668.961 1178.88,618.295 1222.5,567.5 Z"/></g>
<g><path style="opacity:1" fill="#fcf9f7" d="M 1516.5,599.5 C 1517.29,599.217 1517.96,598.717 1518.5,598C 1506.84,597.5 1495.17,597.333 1483.5,597.5C 1483.5,587.5 1483.5,577.5 1483.5,567.5C 1512.5,567.5 1541.5,567.5 1570.5,567.5C 1570.67,577.172 1570.5,586.839 1570,596.5C 1558.59,604.124 1547.09,611.624 1535.5,619C 1547.16,619.5 1558.83,619.667 1570.5,619.5C 1570.5,629.5 1570.5,639.5 1570.5,649.5C 1541.5,649.5 1512.5,649.5 1483.5,649.5C 1483.17,639.81 1483.5,630.144 1484.5,620.5C 1495.18,613.474 1505.85,606.474 1516.5,599.5 Z"/></g>
<g><path style="opacity:1" fill="#f8ede9" d="M -0.5,600.5 C -0.5,599.5 -0.5,598.5 -0.5,597.5C 8.96503,588.536 18.2984,579.369 27.5,570C 28.3317,569.312 28.9984,569.479 29.5,570.5C 19.8664,580.8 9.86644,590.8 -0.5,600.5 Z"/></g>
<g><path style="opacity:1" fill="#f8ede9" d="M 1228.5,572.5 C 1229.57,573.251 1229.74,574.251 1229,575.5C 1185.32,626.007 1141.49,676.34 1097.5,726.5C 1096.48,725.998 1096.31,725.332 1097,724.5C 1141.04,673.961 1184.88,623.295 1228.5,572.5 Z"/></g>
<g><path style="opacity:1" fill="#f5e6e0" d="M 1529.5,595.5 C 1530.29,595.217 1530.96,594.717 1531.5,594C 1516.84,593.5 1502.17,593.333 1487.5,593.5C 1487.5,586.167 1487.5,578.833 1487.5,571.5C 1513.83,571.5 1540.17,571.5 1566.5,571.5C 1566.67,579.174 1566.5,586.841 1566,594.5C 1551.41,603.876 1536.91,613.376 1522.5,623C 1537.16,623.5 1551.83,623.667 1566.5,623.5C 1566.5,630.833 1566.5,638.167 1566.5,645.5C 1540.17,645.5 1513.83,645.5 1487.5,645.5C 1487.17,637.804 1487.5,630.138 1488.5,622.5C 1502.37,613.738 1516.03,604.738 1529.5,595.5 Z"/></g>
<g><path style="opacity:1" fill="#f8ede9" d="M -0.5,611.5 C -0.5,610.5 -0.5,609.5 -0.5,608.5C 10.6318,597.869 21.6318,587.035 32.5,576C 33.635,575.251 34.635,575.417 35.5,576.5C 23.5326,588.133 11.5326,599.8 -0.5,611.5 Z"/></g>
<g><path style="opacity:1" fill="#f8ede9" d="M 1234.5,577.5 C 1235.29,577.783 1235.96,578.283 1236.5,579C 1192.32,630.007 1147.99,680.84 1103.5,731.5C 1102.48,730.998 1102.31,730.332 1103,729.5C 1147.04,678.961 1190.88,628.295 1234.5,577.5 Z"/></g>
<g><path style="opacity:1" fill="#f8ede9" d="M -0.5,622.5 C -0.5,621.5 -0.5,620.5 -0.5,619.5C 12.6318,606.869 25.6318,594.035 38.5,581C 39.3317,580.312 39.9984,580.479 40.5,581.5C 27.1457,595.521 13.479,609.188 -0.5,622.5 Z"/></g>
<g><path style="opacity:1" fill="#f8ede9" d="M 1240.5,582.5 C 1241.57,583.251 1241.74,584.251 1241,585.5C 1197.32,636.007 1153.49,686.34 1109.5,736.5C 1108.48,735.998 1108.31,735.332 1109,734.5C 1153.04,683.961 1196.88,633.295 1240.5,582.5 Z"/></g>
<g><path style="opacity:1" fill="#f8ede9" d="M 284.5,761.5 C 283.833,761.5 283.167,761.5 282.5,761.5C 297.762,741.727 313.262,722.061 329,702.5C 361.029,662.815 393.362,623.482 426,584.5C 426.5,584.667 427,584.833 427.5,585C 379.466,643.589 331.799,702.422 284.5,761.5 Z"/></g>
<g><path style="opacity:1" fill="#f8eeea" d="M 599.5,584.5 C 631.267,583.124 650.767,597.791 658,628.5C 659.858,660.293 645.358,679.793 614.5,687C 582.707,688.858 563.207,674.358 556,643.5C 554.341,611.688 568.841,592.021 599.5,584.5 Z"/></g>
<g><path style="opacity:1" fill="#f8ede9" d="M -0.5,633.5 C -0.5,632.5 -0.5,631.5 -0.5,630.5C 14.2985,616.202 28.9652,601.702 43.5,587C 44.635,586.251 45.635,586.417 46.5,587.5C 30.8126,602.855 15.1459,618.188 -0.5,633.5 Z"/></g>
<g><path style="opacity:1" fill="#f5e6e0" d="M 598.5,589.5 C 626.39,587.527 644.557,599.861 653,626.5C 655.809,655.391 643.309,673.891 615.5,682C 587.698,684.195 569.532,672.029 561,645.5C 558.331,616.469 570.831,597.802 598.5,589.5 Z"/></g>
<g><path style="opacity:1" fill="#f8ede9" d="M -0.5,644.5 C -0.5,643.5 -0.5,642.5 -0.5,641.5C 16.2986,625.202 32.9652,608.702 49.5,592C 50.3317,591.312 50.9984,591.479 51.5,592.5C 34.479,610.188 17.1457,627.521 -0.5,644.5 Z"/></g>
<g><path style="opacity:1" fill="#f9f1ee" d="M 1487.5,593.5 C 1502.17,593.333 1516.84,593.5 1531.5,594C 1530.96,594.717 1530.29,595.217 1529.5,595.5C 1515.5,594.833 1501.5,594.167 1487.5,593.5 Z"/></g>
<g><path style="opacity:1" fill="#f8ede9" d="M -0.5,655.5 C -0.5,654.5 -0.5,653.5 -0.5,652.5C 17.9653,634.535 36.2986,616.368 54.5,598C 55.635,597.251 56.635,597.417 57.5,598.5C 38.1459,617.521 18.8125,636.521 -0.5,655.5 Z"/></g>
<g><path style="opacity:1" fill="#f8eeea" d="M 1483.5,597.5 C 1495.17,597.333 1506.84,597.5 1518.5,598C 1517.96,598.717 1517.29,599.217 1516.5,599.5C 1505.5,598.833 1494.5,598.167 1483.5,597.5 Z"/></g>
<g><path style="opacity:1" fill="#f8ede9" d="M -0.5,666.5 C -0.5,665.5 -0.5,664.5 -0.5,663.5C 19.9653,643.535 40.2986,623.368 60.5,603C 61.3317,602.312 61.9984,602.479 62.5,603.5C 41.8123,624.854 20.8123,645.854 -0.5,666.5 Z"/></g>
<g><path style="opacity:1" fill="#f8ede9" d="M -0.5,677.5 C -0.5,676.5 -0.5,675.5 -0.5,674.5C 21.632,652.868 43.632,631.035 65.5,609C 66.635,608.251 67.635,608.417 68.5,609.5C 45.4792,632.188 22.4792,654.854 -0.5,677.5 Z"/></g>
<g><path style="opacity:1" fill="#f8ede9" d="M -0.5,688.5 C -0.5,687.5 -0.5,686.5 -0.5,685.5C 23.632,661.868 47.632,638.035 71.5,614C 72.3317,613.312 72.9984,613.479 73.5,614.5C 49.1457,639.521 24.479,664.188 -0.5,688.5 Z"/></g>
<g><path style="opacity:1" fill="#f8ede9" d="M -0.5,699.5 C -0.5,698.5 -0.5,697.5 -0.5,696.5C 25.2987,671.202 50.9653,645.702 76.5,620C 77.635,619.251 78.635,619.417 79.5,620.5C 52.8125,646.854 26.1458,673.188 -0.5,699.5 Z"/></g>
<g><path style="opacity:1" fill="#f8ede9" d="M -0.5,710.5 C -0.5,709.5 -0.5,708.5 -0.5,707.5C 27.2987,680.202 54.9653,652.702 82.5,625C 83.3317,624.312 83.9984,624.479 84.5,625.5C 56.479,654.188 28.1457,682.521 -0.5,710.5 Z"/></g>
<g><path style="opacity:1" fill="#f8eeea" d="M 1755.5,652.5 C 1755.5,654.5 1755.5,656.5 1755.5,658.5C 1729.28,644.033 1707.11,648.699 1689,672.5C 1678.24,693.623 1680.74,712.956 1696.5,730.5C 1715,745.863 1734.67,747.53 1755.5,735.5C 1755.5,737.5 1755.5,739.5 1755.5,741.5C 1727.39,754.57 1703.89,748.903 1685,724.5C 1672.51,699.969 1675.68,677.803 1694.5,658C 1713.7,643.581 1734.03,641.748 1755.5,652.5 Z"/></g>
<g><path style="opacity:1" fill="#f5e6e0" d="M 1755.5,658.5 C 1755.5,684.167 1755.5,709.833 1755.5,735.5C 1734.67,747.53 1715,745.863 1696.5,730.5C 1680.74,712.956 1678.24,693.623 1689,672.5C 1707.11,648.699 1729.28,644.033 1755.5,658.5 Z"/></g>
<g><path style="opacity:1" fill="#f8ede9" d="M 1415.5,761.5 C 1414.5,761.5 1413.5,761.5 1412.5,761.5C 1439.48,728.186 1466.48,694.852 1493.5,661.5C 1494.58,662.365 1494.75,663.365 1494,664.5C 1467.62,696.708 1441.45,729.041 1415.5,761.5 Z"/></g>
</svg>
